<svg xmlns="http://www.w3.org/2000/svg" viewBox="0 0 17 23" width="17" height="23">
	<style>
		tspan { white-space:pre }
		.shp0 { fill: #4f4f4f } 
	</style>
	<g id="CART">
		<path id="1-1" class="shp0" d="M16 21.38L1.39 21.38L1.39 5.52L5.5 5.52L5.5 4.2C5.5 2.99 6.52 2 7.78 2L9.61 2C10.87 2 11.89 2.99 11.89 4.2L11.89 5.52L16 5.52L16 21.38ZM10.98 4.2C10.98 3.47 10.37 2.88 9.61 2.88L7.78 2.88C7.03 2.88 6.41 3.47 6.41 4.2L6.41 5.52L10.98 5.52L10.98 4.2ZM15.09 6.41L11.89 6.41L11.89 8.17L10.98 8.17L10.98 6.41L6.41 6.41L6.41 8.17L5.5 8.17L5.5 6.41L2.31 6.41L2.31 20.5L15.09 20.5L15.09 6.41Z" />
	</g>
</svg>