<svg xmlns="http://www.w3.org/2000/svg" viewBox="0 0 23 22" width="23" height="22">
	<style>
		tspan { white-space:pre }
		.shp0 { fill: #ffffff } 
	</style>
	<path id="instagram" fill-rule="evenodd" class="shp0" d="M17.71 21L5.09 21C3.13 21 1.54 19.39 1.54 17.4L1.54 4.61C1.54 2.62 3.13 1.01 5.09 1.01L17.71 1.01C19.67 1.01 21.26 2.62 21.26 4.61L21.26 17.4C21.26 19.39 19.67 21 17.71 21ZM6.27 19L16.53 19C18.05 19 19.29 17.75 19.29 16.2L19.29 9.01L3.51 9.01L3.51 16.2C3.51 17.75 4.75 19 6.27 19ZM15.75 3.41L18.91 3.41L18.91 6.59L15.75 6.59L15.75 3.41ZM11.41 5.41C14.46 5.41 16.94 7.91 16.94 11C16.94 14.09 14.46 16.59 11.41 16.59C8.35 16.59 5.87 14.09 5.87 11C5.87 7.91 8.35 5.41 11.41 5.41ZM11.41 7.81C13.15 7.81 14.56 9.25 14.56 11.02C14.56 12.78 13.15 14.22 11.41 14.22C9.66 14.22 8.25 12.78 8.25 11.02C8.25 9.25 9.66 7.81 11.41 7.81Z" />
</svg>