<svg xmlns="http://www.w3.org/2000/svg" viewBox="0 0 19 22" width="19" height="22">
	<style>
		tspan { white-space:pre }
		.shp0 { fill: #ffffff } 
	</style>
	<path id="pinterest" class="shp0" d="M9.04 12.21C9.04 12.21 9.57 13.28 10.61 13.4C11.66 13.53 14.5 11.59 14.56 8.21C14.62 4.83 13.93 3.85 11.01 3.01C8.06 2.16 5.61 3.61 4.7 6.21C3.66 9.16 4.51 9.87 5.09 10.61L4.7 12.6C4.7 12.6 1.87 11.63 1.93 8.61C2 5.58 3.7 1.01 9.82 1.01C15.88 1.01 17.36 6.88 16.93 9.01C16.5 11.14 16.16 14.02 11.8 15C11.8 15 8.91 15.77 8.25 13.4L8.25 11.81L8.25 11.01L9.04 12.21ZM6.67 9.81C6.67 9.81 5.59 5.9 8.25 5.41C8.25 5.41 10.4 4.89 9.82 7.81C9.82 7.81 7.75 17.01 7.06 18.2C6.38 19.39 5.09 20.99 5.09 20.99C5.09 20.99 5.46 17.39 5.48 16.6C5.52 15.38 6.67 9.81 6.67 9.81Z" />
</svg>