<svg xmlns="http://www.w3.org/2000/svg" viewBox="0 0 23 25" width="23" height="25">
	<style>
		tspan { white-space:pre }
		.shp0 { fill: #ffffff } 
	</style>
	<path id="twitter" class="shp0" d="M19.65 4.41L21.64 4.01C21.64 4.01 19.98 5.91 19.65 6.01C19.65 6.01 19.65 6.01 19.64 6.01C19.6 6.93 19.65 7.21 19.65 7.21C15.86 23.69 1.89 16.4 1.89 16.4C6.97 16.54 7.42 14.4 7.42 14.4C4.45 13.95 3.87 12 3.87 12C4.89 12.47 5.45 11.6 5.45 11.6C2.24 10.76 2.69 7.61 2.69 7.61C3.23 8.1 4.1 8.29 4.63 8.36C4.26 7.94 1.26 4.3 3.08 2.41C3.08 2.41 5.27 6.4 11.07 6.78L11.46 6.68C11.4 6.4 11.37 6.11 11.37 5.81C11.37 3.49 13.22 1.61 15.51 1.61C18.27 1.61 18.87 3.21 18.87 3.21L20.84 2.01C20.84 2.01 20.62 4.01 19.65 4.41Z" />
</svg>